<svg fill="none" height="184.114924" viewBox="0 0 118 40" width="543.139025" xmlns="http://www.w3.org/2000/svg"><path d="m59.5386 33.7514c-4.1409 0-8.2117.1209-12.2073.346-.5146.0302-2.0927.1394-2.0927.1394l.0992-.8886s1.4669-.1125 1.9627-.1478c4.0041-.2856 8.0886-.4384 12.2398-.4384 14.3358 0 27.9142 1.7352 40.0274 4.8343-12.1132-2.4642-25.6899-3.8449-40.0274-3.8449zm-20.4446.2771c-6.6849.8197-13.0946 2.0241-19.1367 3.5695 6.0421-1.2279 12.4518-2.1854 19.1367-2.8388zm23.3442-32.48454s-2.544-.06215-5.3548 1.55376c-1.7849 1.04984-3.3305 2.75478-4.1203 4.39421-.0992.21333-.2086.44681-.277.68702-.0821.27883.0137.53919.2257.82979.1282.20829.2974.34099.2974.34099s.0582-.35947.3129-.96753c.3625-.84324 1.166-2.29789 2.8073-3.89365 2.0979-2.01401 4.2008-2.51961 5.3189-2.76654.4497-.0991.7249-.13605.7249-.13605l.065-.04368zm8.2715 22.47494c-1.8499-.1696-3.3869-1.8796-3.3869-5.9933 0-3.5191 1.3302-5.8438 3.3869-5.8438 1.6499 0 2.4928 1.3925 2.4928 1.3925l-.0052-5.26433s-1.0343-1.03305-3.9289-.90538c-3.5937.15957-7.3175 3.58791-7.3175 10.37411 0 7.9754 3.6161 10.4833 7.6304 10.7487 2.3543.1545 3.6742-.7072 3.6742-.7072v-4.831s-.9335 1.1792-2.5441 1.0314zm16.7534-8.8455v8.7044c.0085 5.0141-2.503 5.6708-6.9089 5.2291-4.4641-.4485-6.6832-2.3685-6.6832-6.7492 0-3.2907 1.6054-4.8713 4.0519-5.9682 1.5764-.7071 4.4213-1.3001 4.4213-1.3001s.0188-.2503-.0102-.692c-.0735-1.107-.607-1.8545-2.2842-1.9788-3.045-.2267-4.647 1.747-4.647 1.747v-4.76716s1.932-1.5924 5.7549-1.27996c4.1204.33594 6.3054 2.32472 6.3054 7.05322zm-5.0847 3.5913s-.8377.2603-1.5712.6685c-1.0121.5678-1.9131 1.3976-1.9131 3.0706 0 1.3841.5385 2.4575 1.9268 2.5465 1.3712.0873 1.5592-.2234 1.5592-.8886v-5.397zm35.6196 1.715v8.7061c0 5.14-2.734 5.5835-6.91 4.6747-4.432-.9641-6.625-2.911-6.624-7.29 0-3.2907 1.602-4.7403 4.049-5.644 1.576-.5829 4.366-.939 4.366-.939s.021-.2486-.008-.692c-.072-1.112-.602-1.9284-2.284-2.1618-2.939-.4099-4.646 1.374-4.646 1.374v-4.7671s2.081-1.3606 5.754-.8181c4.129.6098 6.305 2.7044 6.305 7.5572zm-5.086 3.1831s-.836.1932-1.57.5443c-1.013.4854-1.856 1.2362-1.856 2.9109 0 1.3825.478 2.4357 1.867 2.7061 1.256.2419 1.561-.3527 1.561-1.0179v-5.1434zm-75.0285-4.7369c0 6.0236-2.1576 10.7706-7.2132 11.1737-4.5649.3628-7.1893-2.8371-7.1893-9.4234 0-5.8572 2.397-11.22233 7.1893-11.71281 5.0778-.51736 7.2132 3.01181 7.2132 9.96421zm-5.2351.4569c0-3.4065-.2735-6.1713-1.949-5.9009-1.549.2486-1.9474 3.3528-1.9474 6.4217 0 3.3578.5403 6.0252 2.038 5.9395 1.6327-.0924 1.8584-2.9328 1.8584-6.4603zm-9.0699-9.121s-1.6294-.2536-3.6314.0891c-3.2416.5543-5.4796 2.5683-5.4796 2.5683s-.0052 1.5655-.0052 3.2251v13.7218c0 1.5722.8344 2.2223 2.1611 1.9586 1.3267-.2654 3.8742-.7324 3.8742-.7324s-.6907-.944-.6907-3.9709v-11.6238s.4479-.4502 1.4806-.645c1.3062-.2436 2.291.178 2.291.178zm29.7692 7.6597c0 5.7548-2.4431 10.4194-6.8319 10.6949-1.7388.1075-2.2517-.3914-2.2517-.3914v4.6159c0 .8281-.3112 1.6932-1.4413 2.0577-1.1027.3578-3.7305 1.1792-3.7305 1.1792v-25.9638s2.0636-2.22397 6.4883-2.49105c5.0607-.30403 7.7654 3.54595 7.7654 10.29855zm-5.1889.0369c0-4.1708-.7557-5.9211-2.5184-5.9211-.3915 0-.8343.1042-1.3387.378v11.6859s.5471.4888 1.5046.378c1.2019-.1411 2.3542-1.8377 2.3542-6.5208zm48.128-8.10139c-3.9186-.51736-7.0012 1.44119-7.0012 1.44119v18.1765l5.1052.7374v-15.3461s.4547-.5644 1.3267-.4653c1.2806.1428 1.7832 1.2296 1.7832 3.2554.0257 3.7928.0154 13.0213.0154 13.0213l5.1549.9104s.032-9.4653.002-13.6697c0-5.7901-2.9206-7.5975-6.3879-8.05773zm-77.6015-2.54985c.5574-.27548 1.007-.93058 1.007-1.88971 0-1.12039-.0085-2.94123-.0085-2.94123s-5.1702.65342-9.94194 1.91659c-6.12756 1.62431-9.74186 3.55937-9.74186 3.55937v5.03082s1.05146-.5644 2.97488-1.3673c1.29424-.5409 3.05523-1.1473 3.05523-1.1473v23.9901c0 1.2128.73517 1.9317 2.03112 1.6277 1.15576-.2704 4.36827-1.0969 4.36827-1.0969v-26.23588s1.6824-.40146 3.2467-.71389c1.5627-.31243 2.4637-.46193 3.0091-.73237zm45.4558-5.69601-.0804-.10246s-3.1236-1.810765-6.3327-1.4647383c-2.3833.2553213-3.6058 1.5755983-3.9631 2.7766183-.3266 1.10023.0051 2.04928.0051 2.04928s1.1199-1.74693 3.4109-2.65231c2.7423-1.08176 5.2573-.67526 5.2573-.67526l-.065.04368s-2.6158.3477-4.3922 1.60583c-1.4977.96249-2.4773 2.10472-3.0672 2.87404 1.19.58791 2.874.6551 4.146.01008 1.0549-.48377 1.6037-1.22117 2.5372-2.43899 1.2857-1.67302 2.5441-2.02745 2.5441-2.02745zm-4.0024 5.55659-5.9669 1.58568s.6326 1.07839.6326 3.72898v13.0718c0 1.5135.7471 2.2089 2.3611 2.2089 1.6139 0 3.4416-.0084 3.4416-.0084s-.4855-1.1305-.4855-3.7677c0-5.5062.0188-16.81926.0188-16.81926zm43.9883 29.96666c-.205-.3108-.471-.5376-.805-.6803-.234-.1075-.496-.1613-.786-.1613-.438 0-.831.1428-1.182.4267-.213.173-.381.3863-.502.6366-.12.2351-.18.4955-.18.7811 0 .5173.183.9557.549 1.3186.369.3628.814.5442 1.334.5442.519 0 .962-.1814 1.328-.5426.366-.3611.549-.7995.549-1.3152 0-.3595-.103-.6954-.308-1.0078zm-.653-.2822c.197.1394.356.3258.474.561.121.2503.181.4938.181.729 0 .4401-.154.8147-.46 1.1271-.307.3091-.68.4636-1.113.4636-.432 0-.81-.1545-1.118-.4653-.308-.3124-.461-.687-.461-1.1254s.153-.8012.461-1.112c.308-.3107.675-.4653 1.105-.4653.345 0 .654.0974.931.2906zm-.707 1.4613c.128-.0369.234-.1108.318-.2217.082-.1142.124-.2385.124-.3712 0-.1982-.078-.3595-.232-.4821-.139-.1058-.361-.1596-.665-.1596h-.434v2.1367h.415v-.8466l.646.8466h.506l-.706-.8937.028-.01zm-.477-.8701h.083c.288 0 .431.0941.431.2805 0 .2016-.149.3024-.446.3024h-.07v-.5846z" fill="#00833e"/></svg>